# xmcd
#
# Track frame offsets: 
#        150
#        20520
#        39488
#        61954
#        83098
#        97349
#        114809
#        146141
#
# Disc length: 2167 seconds
#
# Revision: 0
# Processed by: cddbd v1.5.2PL0 Copyright (c) Steve Scherf et al.
# Submitted via: ExactAudioCopy v1.3
#
DISCID=66087508
DTITLE=Maxayn - Bail Out For Fun!
DYEAR=1974
DGENRE=R&B
TTITLE0=Bail Out
TTITLE1=Life Is What You Make It
TTITLE2=Cried My Last Tear
TTITLE3=Moonfunk
TTITLE4=Fun
TTITLE5=You Don't Have To Be Lonely
TTITLE6=Trying For Days
TTITLE7=Everything Begins With You
EXTD=
EXTT0=
EXTT1=
EXTT2=
EXTT3=
EXTT4=
EXTT5=
EXTT6=
EXTT7=
PLAYORDER=
